<svg width="3840" height="1920" viewBox="0 0 3840 1920" fill="none" xmlns="http://www.w3.org/2000/svg">
<g clip-path="url(#clip0_364_44)">
<g style="mix-blend-mode:multiply">
<path d="M631 856L1635.5 479.5L1866 1044L1852.5 1062L851 1441L631 856Z" fill="#3A6D9C"/>
</g>
<path d="M623.5 870.5L629 855L854 1440L846 1443L623.5 870.5Z" fill="#30618D"/>
<rect x="629.224" y="855.097" width="1089.61" height="615.578" transform="rotate(-20.7546 629.224 855.097)" fill="#79A6CF"/>
<path d="M668.003 840.114L1630.74 478.545L1831.79 1015.53L1361.29 1205.52L866.857 1382.08L668.003 840.114Z" fill="#547EA5"/>
<path d="M1125.06 654.193L1142.19 647.966L1353.4 1201.15L1348.21 1204.26L1346.13 1205.3L1334.19 1206.86L1125.06 654.193Z" fill="#F5F4E6"/>
<path d="M1135.22 650.252C1275.89 530.165 1386.88 490.683 1610.5 461.908L1820.97 1013.42C1683.3 1030.54 1593.86 1055.32 1348.11 1204.47L1135.22 650.252Z" fill="url(#paint0_linear_364_44)"/>
<path d="M1130.77 651.649C920.957 678.726 816.938 719.439 651.67 830.05L864.691 1380.58C1034.37 1288.28 1141.23 1241.54 1343.81 1205.81L1130.77 651.649Z" fill="url(#paint1_linear_364_44)"/>
<g style="mix-blend-mode:multiply">
<circle cx="2289.95" cy="461.952" r="125" transform="rotate(-123.097 2289.95 461.952)" fill="#79A6CF"/>
</g>
<circle cx="2276.98" cy="444.976" r="125" transform="rotate(-123.097 2276.98 444.976)" fill="#FFFFFB"/>
<g filter="url(#filter0_i_364_44)">
<ellipse cx="2276.92" cy="444.755" rx="103.471" ry="102.095" transform="rotate(40.2588 2276.92 444.755)" fill="#EDC891"/>
</g>
<path d="M2374.48 442.476C2387.57 469.579 2362.98 520.476 2321.98 538.476C2283.48 559.976 2221.07 542.579 2207.98 515.476C2194.88 488.373 2220.57 433.269 2259.48 414.476C2298.38 395.683 2361.38 415.373 2374.48 442.476Z" fill="#FAE3C0"/>
<g style="mix-blend-mode:multiply" opacity="0.5">
<ellipse cx="1397.98" cy="185.412" rx="21.3742" ry="22.8333" transform="rotate(28.436 1397.98 185.412)" fill="#709EC9"/>
<path d="M1228.69 506.517L1224.34 514.711" stroke="#79A6CF" stroke-width="5.18939" stroke-linecap="round"/>
<path d="M1222.41 511.579L1230.93 463.731L1268.77 483.351L1227.58 514.767L1222.41 511.579Z" fill="#709EC9"/>
<rect x="1380.29" y="173.273" width="42.534" height="327.073" transform="rotate(27.2433 1380.29 173.273)" fill="#709EC9"/>
</g>
<ellipse cx="1390.41" cy="168.979" rx="21.7907" ry="23.2782" transform="rotate(28.436 1390.41 168.979)" fill="url(#paint2_linear_364_44)"/>
<path d="M1217.82 496.34L1213.38 504.694" stroke="#404942" stroke-width="5.2905" stroke-linecap="round"/>
<path d="M1211.42 501.5L1220.11 452.721L1258.69 472.723L1216.69 504.75L1211.42 501.5Z" fill="url(#paint3_linear_364_44)"/>
<rect x="1372.37" y="156.603" width="43.3626" height="333.445" transform="rotate(27.2433 1372.37 156.603)" fill="url(#paint4_linear_364_44)"/>
<g opacity="0.2">
<path d="M1107.01 1564.93C1222 1690.46 1251.18 1751.06 1120.73 1857.59C990.284 1964.12 723.646 1754.51 568.589 1945.13" stroke="black" stroke-width="9.33057" stroke-linecap="round"/>
<path d="M1108.27 1566.58C883.55 1266.42 1194.62 1223.39 1053.34 956.961" stroke="black" stroke-width="9.33057" stroke-linecap="round"/>
<path d="M1107.42 1560.71C1131.32 1288.46 1509.15 1482.17 1572.15 1319.05" stroke="black" stroke-width="9.33057" stroke-linecap="round"/>
<path d="M1081.8 906.449L1066.33 902.803C1049.37 898.806 1033.67 913.072 1036.04 930.338C1038.06 945.112 1052.56 954.779 1066.98 950.966L1082.35 946.902C1093.01 944.081 1099.63 933.442 1097.46 922.628C1095.85 914.639 1089.73 908.318 1081.8 906.449Z" stroke="black" stroke-width="13.3466" stroke-linecap="round"/>
<path d="M1096.81 926.502C1097.1 944.927 1070.17 960.288 1053.96 960.541C1037.75 960.794 1024.37 946.062 1024.08 927.637C1023.79 909.211 1036.7 894.069 1052.92 893.816C1069.13 893.563 1096.52 908.076 1096.81 926.502Z" fill="black"/>
<path d="M1036.07 947.905L1061.35 985.364C1063.58 988.659 1068.17 989.291 1071.2 986.718V986.718C1073.26 984.967 1074.06 982.142 1073.23 979.568L1057.22 930.402" stroke="black" stroke-width="9.33057" stroke-linecap="round"/>
<path d="M1046.06 948.458L1057.88 980.07C1058.78 982.462 1061.84 983.139 1063.66 981.347V981.347C1064.51 980.509 1064.88 979.295 1064.64 978.124L1060.07 955.941C1058.65 949.041 1051.7 944.774 1044.91 946.63V946.63" stroke="black" stroke-width="9.33057" stroke-linecap="round"/>
<path d="M1557.42 1245.22L1572.91 1241.66C1589.89 1237.76 1605.5 1252.11 1603.04 1269.36C1600.94 1284.12 1586.38 1293.71 1571.99 1289.82L1556.64 1285.67C1545.99 1282.79 1539.43 1272.11 1541.67 1261.31C1543.32 1253.33 1549.47 1247.05 1557.42 1245.22Z" stroke="black" stroke-width="13.3466" stroke-linecap="round"/>
<path d="M1542.29 1265.19C1541.9 1283.61 1568.74 1299.12 1584.95 1299.46C1601.17 1299.81 1614.63 1285.15 1615.02 1266.73C1615.4 1248.3 1602.58 1233.09 1586.36 1232.75C1570.15 1232.4 1542.68 1246.77 1542.29 1265.19Z" fill="black"/>
<path d="M1602.91 1286.93L1577.43 1324.25C1575.18 1327.53 1570.59 1328.14 1567.57 1325.55V1325.55C1565.52 1323.78 1564.73 1320.95 1565.58 1318.39L1581.86 1269.31" stroke="black" stroke-width="9.33057" stroke-linecap="round"/>
<path d="M1592.93 1287.43L1580.93 1318.97C1580.02 1321.36 1576.95 1322.02 1575.14 1320.22V1320.22C1574.3 1319.37 1573.93 1318.16 1574.18 1316.99L1578.87 1294.83C1580.33 1287.94 1587.3 1283.71 1594.08 1285.6V1285.6" stroke="black" stroke-width="9.33057" stroke-linecap="round"/>
</g>
<path d="M1100.48 1555.6C1215.47 1681.13 1244.65 1741.72 1114.2 1848.25C983.752 1954.79 717.114 1745.18 562.057 1935.8" stroke="#3F5675" stroke-width="9.33057" stroke-linecap="round"/>
<path d="M1101.73 1557.25C877.018 1257.09 1188.09 1214.06 1046.81 947.63" stroke="#3F5675" stroke-width="9.33057" stroke-linecap="round"/>
<path d="M1100.89 1551.38C1124.78 1279.13 1502.61 1472.84 1565.62 1309.72" stroke="#3F5675" stroke-width="9.33057" stroke-linecap="round"/>
<path d="M1075.27 897.118L1059.8 893.472C1042.83 889.475 1027.14 903.741 1029.51 921.007C1031.53 935.781 1046.03 945.449 1060.45 941.635L1075.82 937.571C1086.48 934.75 1093.1 924.111 1090.93 913.298C1089.32 905.308 1083.2 898.988 1075.27 897.118Z" stroke="#3F5675" stroke-width="13.3466" stroke-linecap="round"/>
<path d="M1090.28 917.171C1090.57 935.597 1063.64 950.957 1047.43 951.21C1031.21 951.463 1017.84 936.732 1017.55 918.306C1017.26 899.881 1030.17 884.739 1046.39 884.486C1062.6 884.233 1089.99 898.746 1090.28 917.171Z" fill="#3F5675"/>
<path d="M1029.54 938.574L1054.82 976.033C1057.04 979.328 1061.64 979.96 1064.67 977.387V977.387C1066.73 975.636 1067.53 972.811 1066.69 970.237L1050.69 921.071" stroke="#3F5675" stroke-width="9.33057" stroke-linecap="round"/>
<path d="M1039.52 939.127L1051.35 970.74C1052.25 973.132 1055.31 973.808 1057.13 972.017V972.017C1057.98 971.178 1058.35 969.964 1058.11 968.793L1053.54 946.61C1052.12 939.71 1045.17 935.443 1038.38 937.299V937.299" stroke="#3F5675" stroke-width="9.33057" stroke-linecap="round"/>
<path d="M1079.99 934.907L1064.52 938.311" stroke="#FFFFF9" stroke-width="4.66529" stroke-linecap="round"/>
<path d="M1550.88 1235.89L1566.37 1232.33C1583.36 1228.42 1598.97 1242.78 1596.51 1260.03C1594.4 1274.79 1579.85 1284.38 1565.46 1280.49L1550.11 1276.34C1539.46 1273.46 1532.9 1262.78 1535.14 1251.98C1536.79 1244 1542.94 1237.71 1550.88 1235.89Z" stroke="#3F5675" stroke-width="13.3466" stroke-linecap="round"/>
<path d="M1535.76 1255.86C1535.37 1274.28 1562.21 1289.79 1578.42 1290.13C1594.64 1290.48 1608.09 1275.82 1608.48 1257.39C1608.87 1238.97 1596.04 1223.76 1579.83 1223.42C1563.62 1223.07 1536.15 1237.44 1535.76 1255.86Z" fill="#3F5675"/>
<path d="M1596.38 1277.6L1570.89 1314.92C1568.65 1318.2 1564.06 1318.8 1561.04 1316.22V1316.22C1558.99 1314.45 1558.2 1311.62 1559.05 1309.05L1575.33 1259.98" stroke="#3F5675" stroke-width="9.33057" stroke-linecap="round"/>
<path d="M1586.39 1278.09L1574.39 1309.64C1573.49 1312.03 1570.42 1312.69 1568.61 1310.89V1310.89C1567.76 1310.04 1567.4 1308.83 1567.65 1307.66L1572.34 1285.5C1573.79 1278.61 1580.77 1274.38 1587.55 1276.27V1276.27" stroke="#3F5675" stroke-width="9.33057" stroke-linecap="round"/>
<path d="M1545.95 1273.65L1561.41 1277.14" stroke="#FFFFF9" stroke-width="4.66529" stroke-linecap="round"/>
<rect x="2375.98" y="681.584" width="370.939" height="381.753" transform="rotate(14.0965 2375.98 681.584)" fill="#FFFFF9"/>
<path d="M2406.48 738.647L2679.52 805.521" stroke="#79A6CF" stroke-width="7" stroke-linecap="round"/>
<g style="mix-blend-mode:multiply">
<path d="M2671.94 939.083L2661.2 926.299C2660.55 925.525 2659.96 924.703 2659.44 923.839L2590.44 810.229C2587.28 805.029 2586.68 798.669 2588.82 792.973L2666.31 586.37C2671.92 571.426 2691.98 568.892 2701.13 581.973L2900.23 866.788C2906.53 875.804 2904.29 888.227 2895.24 894.471L2774.42 977.766C2765.36 984.014 2752.94 981.685 2746.76 972.58L2729.14 946.624C2723.52 938.341 2712.6 935.549 2703.69 940.116L2696.16 943.975C2687.94 948.192 2677.89 946.163 2671.94 939.083Z" fill="#79A6CF"/>
</g>
<rect x="2679.83" y="543.11" width="392.932" height="196.006" rx="15" transform="rotate(54.7809 2679.83 543.11)" fill="#3F5675"/>
<path d="M2564.12 715.563L2705.05 915.206L2679.32 933.369C2672.56 938.146 2663.2 936.533 2658.42 929.765L2534.79 754.63C2530.01 747.862 2531.62 738.503 2538.39 733.725L2564.12 715.563Z" fill="url(#paint5_radial_364_44)"/>
<rect x="2867.31" y="853.588" width="25.9087" height="46" rx="5" transform="rotate(145.29 2867.31 853.588)" fill="#FAE3C0"/>
<rect x="2832.87" y="804.203" width="25.9087" height="46" rx="5" transform="rotate(145.29 2832.87 804.203)" fill="#FFFFF9"/>
</g>
<defs>
<filter id="filter0_i_364_44" x="2174.01" y="342.082" width="209.515" height="209.06" filterUnits="userSpaceOnUse" color-interpolation-filters="sRGB">
<feFlood flood-opacity="0" result="BackgroundImageFix"/>
<feBlend mode="normal" in="SourceGraphic" in2="BackgroundImageFix" result="shape"/>
<feColorMatrix in="SourceAlpha" type="matrix" values="0 0 0 0 0 0 0 0 0 0 0 0 0 0 0 0 0 0 127 0" result="hardAlpha"/>
<feOffset dx="9.28133" dy="18.5627"/>
<feGaussianBlur stdDeviation="1.85627"/>
<feComposite in2="hardAlpha" operator="arithmetic" k2="-1" k3="1"/>
<feColorMatrix type="matrix" values="0 0 0 0 0 0 0 0 0 0 0 0 0 0 0 0 0 0 0.25 0"/>
<feBlend mode="normal" in2="shape" result="effect1_innerShadow_364_44"/>
</filter>
<linearGradient id="paint0_linear_364_44" x1="1257.66" y1="781.839" x2="1107.63" y2="835.566" gradientUnits="userSpaceOnUse">
<stop stop-color="#FFFEF9"/>
<stop offset="0.9813" stop-color="#EDEBDC"/>
</linearGradient>
<linearGradient id="paint1_linear_364_44" x1="1150.14" y1="908.205" x2="1341.89" y2="819.344" gradientUnits="userSpaceOnUse">
<stop stop-color="#FFFEF9"/>
<stop offset="1" stop-color="#EDEBDC"/>
</linearGradient>
<linearGradient id="paint2_linear_364_44" x1="1405.55" y1="164.418" x2="1354.39" y2="166.333" gradientUnits="userSpaceOnUse">
<stop stop-color="#DDEBF7"/>
<stop offset="1" stop-color="white"/>
</linearGradient>
<linearGradient id="paint3_linear_364_44" x1="1236.94" y1="485.166" x2="1216.4" y2="469.575" gradientUnits="userSpaceOnUse">
<stop stop-color="#BDD8F0"/>
<stop offset="1" stop-color="#FEFFFE"/>
</linearGradient>
<linearGradient id="paint4_linear_364_44" x1="1364.27" y1="231.302" x2="1448.66" y2="230.322" gradientUnits="userSpaceOnUse">
<stop stop-color="white"/>
<stop offset="0.0001" stop-color="white"/>
<stop offset="0.89581" stop-color="#BDD8F0"/>
</linearGradient>
<radialGradient id="paint5_radial_364_44" cx="0" cy="0" r="1" gradientUnits="userSpaceOnUse" gradientTransform="translate(2628.74 822.387) rotate(142.143) scale(50.5594 265.742)">
<stop stop-color="#526C8F"/>
<stop offset="1" stop-color="#3F5675"/>
</radialGradient>
<clipPath id="clip0_364_44">
<rect width="3840" height="1920" fill="white"/>
</clipPath>
</defs>
</svg>
