<svg width="2638" height="1821" viewBox="0 0 2638 1821" fill="none" xmlns="http://www.w3.org/2000/svg">
<g style="mix-blend-mode:multiply">
<path d="M320 757L1324.5 380.5L1555 945L1541.5 963L540 1342L320 757Z" fill="#3A6D9C"/>
</g>
<path d="M312.5 771.5L318 756L543 1341L535 1344L312.5 771.5Z" fill="#30618D"/>
<rect x="318.224" y="756.097" width="1089.61" height="615.578" transform="rotate(-20.7546 318.224 756.097)" fill="#79A6CF"/>
<path d="M357.003 741.114L1319.74 379.545L1520.79 916.531L1050.29 1106.52L555.857 1283.08L357.003 741.114Z" fill="#547EA5"/>
<path d="M814.064 555.193L831.189 548.966L1042.4 1102.15L1037.21 1105.26L1035.13 1106.3L1023.19 1107.86L814.064 555.193Z" fill="#F5F4E6"/>
<path d="M824.221 551.252C964.889 431.165 1075.88 391.683 1299.5 362.908L1509.97 914.419C1372.3 931.542 1282.86 956.316 1037.11 1105.47L824.221 551.252Z" fill="url(#paint0_linear_339_46)"/>
<path d="M819.766 552.649C609.957 579.726 505.938 620.439 340.67 731.05L553.691 1281.58C723.366 1189.28 830.235 1142.54 1032.81 1106.81L819.766 552.649Z" fill="url(#paint1_linear_339_46)"/>
<g style="mix-blend-mode:multiply">
<circle cx="185.952" cy="1111.95" r="125" transform="rotate(-123.097 185.952 1111.95)" fill="#79A6CF"/>
</g>
<circle cx="172.976" cy="1094.98" r="125" transform="rotate(-123.097 172.976 1094.98)" fill="#FFFFFB"/>
<g filter="url(#filter0_i_339_46)">
<ellipse cx="172.916" cy="1094.76" rx="103.471" ry="102.095" transform="rotate(40.2588 172.916 1094.76)" fill="#EDC891"/>
</g>
<path d="M270.476 1092.48C283.568 1119.58 258.976 1170.48 217.976 1188.48C179.476 1209.98 117.068 1192.58 103.976 1165.48C90.8834 1138.37 116.573 1083.27 155.476 1064.48C194.378 1045.68 257.383 1065.37 270.476 1092.48Z" fill="#FAE3C0"/>
<g style="mix-blend-mode:multiply" opacity="0.5">
<ellipse cx="1086.98" cy="86.4125" rx="21.3742" ry="22.8333" transform="rotate(28.436 1086.98 86.4125)" fill="#709EC9"/>
<path d="M917.685 407.517L913.337 415.711" stroke="#79A6CF" stroke-width="5.18939" stroke-linecap="round"/>
<path d="M911.409 412.579L919.93 364.731L957.774 384.351L916.579 415.767L911.409 412.579Z" fill="#709EC9"/>
<rect x="1069.29" y="74.2728" width="42.534" height="327.073" transform="rotate(27.2433 1069.29 74.2728)" fill="#709EC9"/>
</g>
<ellipse cx="1079.41" cy="69.9794" rx="21.7907" ry="23.2782" transform="rotate(28.436 1079.41 69.9794)" fill="url(#paint2_linear_339_46)"/>
<path d="M906.818 397.34L902.385 405.694" stroke="#404942" stroke-width="5.2905" stroke-linecap="round"/>
<path d="M900.419 402.5L909.106 353.721L947.687 373.723L905.69 405.75L900.419 402.5Z" fill="url(#paint3_linear_339_46)"/>
<rect x="1061.37" y="57.6033" width="43.3626" height="333.445" transform="rotate(27.2433 1061.37 57.6033)" fill="url(#paint4_linear_339_46)"/>
<g opacity="0.2">
<path d="M796.007 1465.93C911.002 1591.46 940.177 1652.05 809.73 1758.59C679.284 1865.12 412.646 1655.51 257.589 1846.13" stroke="black" stroke-width="9.33057" stroke-linecap="round"/>
<path d="M797.265 1467.58C572.55 1167.42 883.618 1124.39 742.34 857.961" stroke="black" stroke-width="9.33057" stroke-linecap="round"/>
<path d="M796.421 1461.71C820.316 1189.46 1198.15 1383.17 1261.15 1220.05" stroke="black" stroke-width="9.33057" stroke-linecap="round"/>
<path d="M770.799 807.449L755.328 803.803C738.366 799.806 722.672 814.072 725.038 831.337C727.064 846.112 741.565 855.779 755.981 851.966L771.348 847.902C782.012 845.081 788.634 834.442 786.457 823.628C784.848 815.638 778.731 809.318 770.799 807.449Z" stroke="black" stroke-width="13.3466" stroke-linecap="round"/>
<path d="M785.811 827.502C786.098 845.927 759.175 861.288 742.96 861.541C726.746 861.794 713.369 847.062 713.081 828.637C712.794 810.211 725.705 795.069 741.919 794.816C758.134 794.563 785.523 809.076 785.811 827.502Z" fill="black"/>
<path d="M725.073 848.905L750.352 886.364C752.576 889.659 757.169 890.291 760.199 887.718V887.718C762.263 885.966 763.063 883.141 762.226 880.568L746.224 831.402" stroke="black" stroke-width="9.33057" stroke-linecap="round"/>
<path d="M735.055 849.457L746.882 881.07C747.777 883.462 750.838 884.139 752.658 882.347V882.347C753.51 881.509 753.879 880.295 753.638 879.124L749.073 856.94C747.653 850.041 740.702 845.774 733.907 847.63V847.63" stroke="black" stroke-width="9.33057" stroke-linecap="round"/>
<path d="M1246.42 1146.22L1261.91 1142.66C1278.89 1138.76 1294.5 1153.11 1292.04 1170.36C1289.94 1185.12 1275.38 1194.71 1260.99 1190.82L1245.64 1186.67C1234.99 1183.79 1228.43 1173.11 1230.67 1162.31C1232.32 1154.33 1238.47 1148.05 1246.42 1146.22Z" stroke="black" stroke-width="13.3466" stroke-linecap="round"/>
<path d="M1231.29 1166.19C1230.9 1184.61 1257.74 1200.12 1273.95 1200.46C1290.17 1200.81 1303.63 1186.15 1304.02 1167.73C1304.4 1149.3 1291.58 1134.09 1275.36 1133.75C1259.15 1133.4 1231.68 1147.77 1231.29 1166.19Z" fill="black"/>
<path d="M1291.91 1187.93L1266.43 1225.25C1264.18 1228.53 1259.59 1229.14 1256.57 1226.55V1226.55C1254.52 1224.78 1253.73 1221.95 1254.58 1219.38L1270.86 1170.31" stroke="black" stroke-width="9.33057" stroke-linecap="round"/>
<path d="M1281.93 1188.43L1269.93 1219.97C1269.02 1222.36 1265.95 1223.02 1264.14 1221.22V1221.22C1263.3 1220.37 1262.93 1219.16 1263.18 1217.99L1267.87 1195.83C1269.33 1188.94 1276.3 1184.71 1283.08 1186.6V1186.6" stroke="black" stroke-width="9.33057" stroke-linecap="round"/>
</g>
<path d="M789.475 1456.6C904.471 1582.13 933.645 1642.72 803.199 1749.26C672.752 1855.79 406.114 1646.18 251.057 1836.8" stroke="#3F5675" stroke-width="9.33057" stroke-linecap="round"/>
<path d="M790.734 1458.25C566.018 1158.09 877.087 1115.06 735.809 848.63" stroke="#3F5675" stroke-width="9.33057" stroke-linecap="round"/>
<path d="M789.89 1452.38C813.785 1180.13 1191.61 1373.84 1254.62 1210.72" stroke="#3F5675" stroke-width="9.33057" stroke-linecap="round"/>
<path d="M764.268 798.118L748.797 794.472C731.835 790.475 716.141 804.741 718.507 822.007C720.533 836.781 735.034 846.449 749.45 842.635L764.817 838.571C775.481 835.75 782.103 825.111 779.926 814.298C778.317 806.308 772.2 799.988 764.268 798.118Z" stroke="#3F5675" stroke-width="13.3466" stroke-linecap="round"/>
<path d="M779.28 818.171C779.567 836.597 752.644 851.957 736.429 852.21C720.215 852.463 706.837 837.732 706.55 819.306C706.262 800.881 719.174 785.739 735.388 785.486C751.603 785.233 778.992 799.746 779.28 818.171Z" fill="#3F5675"/>
<path d="M718.542 839.574L743.821 877.033C746.045 880.328 750.638 880.96 753.668 878.387V878.387C755.732 876.636 756.532 873.811 755.695 871.237L739.693 822.071" stroke="#3F5675" stroke-width="9.33057" stroke-linecap="round"/>
<path d="M728.524 840.127L740.351 871.74C741.246 874.131 744.307 874.808 746.127 873.017V873.017C746.979 872.178 747.348 870.964 747.107 869.793L742.542 847.61C741.122 840.71 734.171 836.443 727.376 838.299V838.299" stroke="#3F5675" stroke-width="9.33057" stroke-linecap="round"/>
<path d="M768.989 835.907L753.518 839.311" stroke="#FFFFF9" stroke-width="4.66529" stroke-linecap="round"/>
<path d="M1239.88 1136.89L1255.37 1133.33C1272.36 1129.43 1287.97 1143.78 1285.51 1161.03C1283.4 1175.79 1268.85 1185.38 1254.46 1181.49L1239.11 1177.34C1228.46 1174.46 1221.9 1163.78 1224.14 1152.98C1225.79 1145 1231.94 1138.72 1239.88 1136.89Z" stroke="#3F5675" stroke-width="13.3466" stroke-linecap="round"/>
<path d="M1224.76 1156.86C1224.37 1175.28 1251.21 1190.79 1267.42 1191.13C1283.64 1191.48 1297.09 1176.82 1297.48 1158.4C1297.87 1139.97 1285.04 1124.76 1268.83 1124.42C1252.62 1124.07 1225.15 1138.44 1224.76 1156.86Z" fill="#3F5675"/>
<path d="M1285.38 1178.6L1259.89 1215.92C1257.65 1219.2 1253.06 1219.8 1250.04 1217.22V1217.22C1247.99 1215.45 1247.2 1212.62 1248.05 1210.05L1264.33 1160.98" stroke="#3F5675" stroke-width="9.33057" stroke-linecap="round"/>
<path d="M1275.39 1179.09L1263.39 1210.64C1262.49 1213.03 1259.42 1213.69 1257.61 1211.89V1211.89C1256.76 1211.04 1256.4 1209.83 1256.65 1208.66L1261.34 1186.5C1262.79 1179.61 1269.77 1175.38 1276.55 1177.27V1177.27" stroke="#3F5675" stroke-width="9.33057" stroke-linecap="round"/>
<path d="M1234.95 1174.65L1250.41 1178.14" stroke="#FFFFF9" stroke-width="4.66529" stroke-linecap="round"/>
<rect x="2064.98" y="582.584" width="370.939" height="381.753" transform="rotate(14.0965 2064.98 582.584)" fill="#FFFFF9"/>
<path d="M2095.48 639.647L2368.52 706.52" stroke="#79A6CF" stroke-width="7" stroke-linecap="round"/>
<g style="mix-blend-mode:multiply">
<path d="M2360.94 840.083L2350.2 827.299C2349.55 826.525 2348.96 825.703 2348.44 824.839L2279.44 711.229C2276.28 706.029 2275.68 699.669 2277.82 693.973L2355.31 487.37C2360.92 472.426 2380.98 469.892 2390.13 482.973L2589.23 767.788C2595.53 776.804 2593.29 789.227 2584.24 795.471L2463.42 878.766C2454.36 885.014 2441.94 882.685 2435.76 873.58L2418.14 847.624C2412.52 839.341 2401.6 836.549 2392.69 841.116L2385.16 844.975C2376.94 849.192 2366.89 847.163 2360.94 840.083Z" fill="#79A6CF"/>
</g>
<rect x="2368.83" y="444.11" width="392.932" height="196.006" rx="15" transform="rotate(54.7809 2368.83 444.11)" fill="#3F5675"/>
<path d="M2253.12 616.563L2394.05 816.206L2368.32 834.369C2361.56 839.146 2352.2 837.533 2347.42 830.765L2223.79 655.63C2219.01 648.862 2220.62 639.503 2227.39 634.725L2253.12 616.563Z" fill="url(#paint5_radial_339_46)"/>
<rect x="2556.31" y="754.588" width="25.9087" height="46" rx="5" transform="rotate(145.29 2556.31 754.588)" fill="#FAE3C0"/>
<rect x="2521.87" y="705.203" width="25.9087" height="46" rx="5" transform="rotate(145.29 2521.87 705.203)" fill="#FFFFF9"/>
<defs>
<filter id="filter0_i_339_46" x="70.0149" y="992.082" width="209.515" height="209.06" filterUnits="userSpaceOnUse" color-interpolation-filters="sRGB">
<feFlood flood-opacity="0" result="BackgroundImageFix"/>
<feBlend mode="normal" in="SourceGraphic" in2="BackgroundImageFix" result="shape"/>
<feColorMatrix in="SourceAlpha" type="matrix" values="0 0 0 0 0 0 0 0 0 0 0 0 0 0 0 0 0 0 127 0" result="hardAlpha"/>
<feOffset dx="9.28133" dy="18.5627"/>
<feGaussianBlur stdDeviation="1.85627"/>
<feComposite in2="hardAlpha" operator="arithmetic" k2="-1" k3="1"/>
<feColorMatrix type="matrix" values="0 0 0 0 0 0 0 0 0 0 0 0 0 0 0 0 0 0 0.25 0"/>
<feBlend mode="normal" in2="shape" result="effect1_innerShadow_339_46"/>
</filter>
<linearGradient id="paint0_linear_339_46" x1="946.656" y1="682.839" x2="796.63" y2="736.566" gradientUnits="userSpaceOnUse">
<stop stop-color="#FFFEF9"/>
<stop offset="0.9813" stop-color="#EDEBDC"/>
</linearGradient>
<linearGradient id="paint1_linear_339_46" x1="839.137" y1="809.205" x2="1030.89" y2="720.344" gradientUnits="userSpaceOnUse">
<stop stop-color="#FFFEF9"/>
<stop offset="1" stop-color="#EDEBDC"/>
</linearGradient>
<linearGradient id="paint2_linear_339_46" x1="1094.55" y1="65.4181" x2="1043.39" y2="67.3328" gradientUnits="userSpaceOnUse">
<stop stop-color="#DDEBF7"/>
<stop offset="1" stop-color="white"/>
</linearGradient>
<linearGradient id="paint3_linear_339_46" x1="925.944" y1="386.166" x2="905.396" y2="370.575" gradientUnits="userSpaceOnUse">
<stop stop-color="#BDD8F0"/>
<stop offset="1" stop-color="#FEFFFE"/>
</linearGradient>
<linearGradient id="paint4_linear_339_46" x1="1053.27" y1="132.302" x2="1137.66" y2="131.323" gradientUnits="userSpaceOnUse">
<stop stop-color="white"/>
<stop offset="0.0001" stop-color="white"/>
<stop offset="0.89581" stop-color="#BDD8F0"/>
</linearGradient>
<radialGradient id="paint5_radial_339_46" cx="0" cy="0" r="1" gradientUnits="userSpaceOnUse" gradientTransform="translate(2317.74 723.387) rotate(142.143) scale(50.5594 265.742)">
<stop stop-color="#526C8F"/>
<stop offset="1" stop-color="#3F5675"/>
</radialGradient>
</defs>
</svg>
